<svg width="164" height="38" viewBox="0 0 164 38" fill="none" xmlns="http://www.w3.org/2000/svg">
<path fill-rule="evenodd" clip-rule="evenodd" d="M14.2391 13.5414C16.9939 14.4692 18.91 15.4963 20.6017 16.7079C22.8584 14.0575 23.0326 10.6292 22.8029 8.28465C20.8507 10.6305 17.9849 12.3892 14.2391 13.5414Z" fill="#00B7F8"/>
<mask id="mask0" mask-type="alpha" maskUnits="userSpaceOnUse" x="0" y="0" width="24" height="38">
<path fill-rule="evenodd" clip-rule="evenodd" d="M6.10352e-05 0.290192H23.9633V37.7236H6.10352e-05V0.290192Z" fill="white"/>
</mask>
<g mask="url(#mask0)">
<path fill-rule="evenodd" clip-rule="evenodd" d="M0.570943 37.7236C2.53739 35.0165 5.10772 34.3868 9.62385 33.2785C11.3684 32.8514 13.3464 32.3662 15.7361 31.6643C21.3077 30.0268 22.7335 26.8836 23.0858 25.1559C23.5529 22.8784 22.7374 20.4888 21.0097 19.0643C17.2471 15.9636 13.5477 14.7404 8.03546 13.5701L6.8561 13.321L8.05223 13.1726C14.7632 12.3417 19.4509 10.1688 21.9838 6.71071C23.8871 4.112 24.0109 1.46167 23.9529 0.290062C22.469 2.61135 19.518 3.31458 14.8484 4.42813C12.9116 4.89135 10.7167 5.41393 8.20062 6.15329C2.6303 7.78942 1.20449 10.9326 0.850942 12.6617C0.385136 14.9378 1.20062 17.3288 2.92707 18.752C6.68965 21.8526 10.3903 23.0746 15.9026 24.2462L17.0819 24.4965L15.8845 24.6436C12.4574 25.0681 9.17352 25.7984 6.63804 26.6978C3.43288 27.8359 1.40062 29.2114 0.598039 30.7881C-0.549057 33.0384 0.249652 36.5468 0.570943 37.7236Z" fill="white"/>
</g>
<path fill-rule="evenodd" clip-rule="evenodd" d="M41.419 22.7752C41.5326 23.5726 41.7545 24.1701 42.0848 24.5649C42.6887 25.2836 43.7261 25.6436 45.1945 25.6436C46.0719 25.6436 46.7868 25.5481 47.3352 25.3584C48.3765 24.9959 48.8965 24.3197 48.8965 23.3326C48.8965 22.7559 48.641 22.3094 48.1313 21.9946C47.6216 21.6849 46.8139 21.4126 45.7068 21.1765L43.8152 20.761C41.9571 20.3507 40.681 19.9043 39.9868 19.4217C38.81 18.6165 38.2203 17.3572 38.2203 15.6436C38.2203 14.0797 38.7958 12.7791 39.9468 11.7443C41.099 10.7094 42.7894 10.192 45.0216 10.192C46.8836 10.192 48.4732 10.6797 49.7881 11.6565C51.1042 12.632 51.7945 14.0462 51.8578 15.9043H48.3507C48.2861 14.8526 47.8165 14.1055 46.9416 13.663C46.3584 13.3714 45.6345 13.2255 44.7674 13.2255C43.8048 13.2255 43.0345 13.4152 42.4603 13.7946C41.8836 14.1739 41.5971 14.703 41.5971 15.3817C41.5971 16.0062 41.8797 16.472 42.4474 16.7804C42.8113 16.9855 43.5855 17.2268 44.7687 17.503L47.8332 18.2268C49.1765 18.5417 50.1829 18.9649 50.8539 19.4939C51.8939 20.3159 52.4139 21.5043 52.4139 23.0604C52.4139 24.6552 51.7984 25.9804 50.5648 27.0359C49.3313 28.0901 47.5881 28.6165 45.3365 28.6165C43.0384 28.6165 41.2294 28.0978 39.9119 27.0591C38.5945 26.0204 37.9365 24.592 37.9365 22.7752H41.419Z" fill="white"/>
<path fill-rule="evenodd" clip-rule="evenodd" d="M58.0672 15.2514V23.0359C58.0672 23.7714 58.1524 24.3236 58.3253 24.6952C58.6324 25.3507 59.2337 25.6784 60.1304 25.6784C61.2775 25.6784 62.0633 25.2126 62.4879 24.281C62.7085 23.7739 62.8182 23.1081 62.8182 22.2772V15.2514H66.2427V28.1675H62.9601V26.343C62.9291 26.3817 62.8491 26.5004 62.724 26.6978C62.5988 26.8939 62.4491 27.0681 62.275 27.2178C61.7472 27.6939 61.2375 28.0178 60.7446 28.1907C60.2517 28.3636 59.675 28.4514 59.013 28.4514C57.1085 28.4514 55.8246 27.7636 55.1627 26.3894C54.7924 25.6307 54.6066 24.5133 54.6066 23.0359V15.2514H58.0672Z" fill="white"/>
<path fill-rule="evenodd" clip-rule="evenodd" d="M77.7938 19.0668C77.3357 18.3004 76.5899 17.9172 75.5615 17.9172C74.3241 17.9172 73.4738 18.4991 73.0119 19.6591C72.7719 20.2759 72.6532 21.0578 72.6532 22.0049C72.6532 23.5055 73.0544 24.561 73.8596 25.1688C74.3383 25.5249 74.9061 25.703 75.5615 25.703C76.5099 25.703 77.2338 25.3391 77.7332 24.6126C78.2325 23.8849 78.4815 22.9172 78.4815 21.7094C78.4815 20.7133 78.2519 19.8333 77.7938 19.0668ZM80.3861 16.6385C81.439 17.7507 81.9654 19.3868 81.9654 21.543C81.9654 23.8191 81.4506 25.552 80.4209 26.7443C79.3912 27.9378 78.0661 28.5339 76.4441 28.5339C75.4093 28.5339 74.5512 28.2772 73.8674 27.7636C73.4944 27.4797 73.1293 27.0643 72.7706 26.5197V33.2501H69.4299V15.2514H72.6635V17.1585C73.0299 16.5985 73.4183 16.1559 73.8338 15.832C74.5886 15.2565 75.4867 14.9675 76.528 14.9675C78.0454 14.9675 79.3319 15.5249 80.3861 16.6385Z" fill="white"/>
<path fill-rule="evenodd" clip-rule="evenodd" d="M87.7105 18.4304C87.2344 18.9221 86.9338 19.5879 86.8112 20.4304H92.6293C92.5686 19.5324 92.268 18.8524 91.7286 18.3892C91.1905 17.9246 90.5235 17.6924 89.726 17.6924C88.8602 17.6924 88.188 17.9388 87.7105 18.4304ZM92.7622 15.513C93.6628 15.9169 94.4073 16.5543 94.9957 17.424C95.5235 18.1904 95.8667 19.0808 96.0228 20.0937C96.1144 20.6872 96.1518 21.5414 96.1338 22.6563H86.7286C86.7802 23.9517 87.2318 24.8601 88.0783 25.3827C88.5957 25.7066 89.2151 25.8692 89.9415 25.8692C90.7093 25.8692 91.3351 25.6704 91.8164 25.2756C92.0783 25.0627 92.3093 24.7659 92.5118 24.3866H95.9596C95.8667 25.153 95.4499 25.9311 94.7067 26.7221C93.5493 27.9763 91.9312 28.6059 89.8473 28.6059C88.1286 28.6059 86.6125 28.0756 85.2989 27.0163C83.9841 25.9569 83.3286 24.233 83.3286 21.8446C83.3286 19.6085 83.9209 17.8924 85.1067 16.6988C86.2925 15.504 87.8331 14.9079 89.726 14.9079C90.8499 14.9079 91.8615 15.1104 92.7622 15.513Z" fill="white"/>
<path fill-rule="evenodd" clip-rule="evenodd" d="M105.016 14.9502C105.06 14.9541 105.156 14.9592 105.308 14.9683V18.4263C105.094 18.4044 104.904 18.3876 104.738 18.3799C104.573 18.3721 104.438 18.367 104.335 18.367C102.976 18.367 102.064 18.8095 101.598 19.696C101.338 20.1928 101.207 20.9592 101.207 21.9941V28.167H97.8062V15.2508H101.029V17.5037C101.551 16.6431 102.005 16.0534 102.392 15.7373C103.024 15.2083 103.846 14.9437 104.856 14.9437C104.92 14.9437 104.974 14.945 105.016 14.9502Z" fill="white"/>
<path fill-rule="evenodd" clip-rule="evenodd" d="M107.558 10.725H120.011V13.7947H111.184V17.8102H118.922V20.845H111.184V28.1676H107.558V10.725Z" fill="white"/>
<path fill-rule="evenodd" clip-rule="evenodd" d="M129.288 21.887C129.073 22.0212 128.853 22.1295 128.634 22.2134C128.413 22.296 128.111 22.3734 127.727 22.4444L126.958 22.5863C126.238 22.7128 125.719 22.8663 125.406 23.0483C124.874 23.3566 124.608 23.8341 124.608 24.4818C124.608 25.0586 124.771 25.4754 125.096 25.7308C125.421 25.9889 125.816 26.1166 126.28 26.1166C127.019 26.1166 127.699 25.9037 128.32 25.4766C128.941 25.0508 129.264 24.2728 129.288 23.1437V21.887ZM127.222 20.3102C127.852 20.2328 128.301 20.1334 128.572 20.0147C129.057 19.8095 129.301 19.4908 129.301 19.056C129.301 18.527 129.114 18.1605 128.741 17.9592C128.37 17.7579 127.822 17.6573 127.102 17.6573C126.295 17.6573 125.72 17.8547 125.385 18.2495C125.145 18.5412 124.985 18.9373 124.905 19.4354H121.646C121.718 18.305 122.035 17.3773 122.598 16.6495C123.495 15.5128 125.034 14.9437 127.216 14.9437C128.635 14.9437 129.897 15.2237 130.999 15.785C132.102 16.3463 132.653 17.4044 132.653 18.9605V24.8844C132.653 25.296 132.661 25.7928 132.678 26.3773C132.701 26.8199 132.768 27.1205 132.878 27.2779C132.989 27.4366 133.155 27.5657 133.376 27.6689V28.167H129.702C129.6 27.9063 129.53 27.6624 129.49 27.4328C129.451 27.2031 129.42 26.9425 129.395 26.6495C128.927 27.1554 128.386 27.5863 127.775 27.9412C127.044 28.3605 126.217 28.5695 125.295 28.5695C124.119 28.5695 123.148 28.2354 122.381 27.5683C121.615 26.9012 121.231 25.9541 121.231 24.7308C121.231 23.1437 121.848 21.9941 123.08 21.2831C123.758 20.8947 124.753 20.6199 126.066 20.4534L127.222 20.3102Z" fill="white"/>
<path fill-rule="evenodd" clip-rule="evenodd" d="M142.779 14.9502C142.821 14.9541 142.918 14.9592 143.069 14.9683V18.4263C142.856 18.4044 142.665 18.3876 142.5 18.3799C142.334 18.3721 142.199 18.367 142.097 18.367C140.739 18.367 139.826 18.8095 139.361 19.696C139.099 20.1928 138.97 20.9592 138.97 21.9941V28.167H135.568V15.2508H138.792V17.5037C139.312 16.6431 139.767 16.0534 140.154 15.7373C140.785 15.2083 141.607 14.9437 142.619 14.9437C142.682 14.9437 142.735 14.945 142.779 14.9502Z" fill="white"/>
<mask id="mask1" mask-type="alpha" maskUnits="userSpaceOnUse" x="144" y="14" width="20" height="15">
<path fill-rule="evenodd" clip-rule="evenodd" d="M144.988 14.9676H163.519V28.1676H144.988V14.9676Z" fill="white"/>
</mask>
<g mask="url(#mask1)">
<path fill-rule="evenodd" clip-rule="evenodd" d="M161.161 15.2992C161.714 15.5212 162.215 15.9083 162.667 16.4605C163.029 16.9108 163.274 17.4644 163.401 18.1199C163.479 18.5534 163.519 19.1895 163.519 20.027L163.496 28.1676H160.036V19.9444C160.036 19.4541 159.956 19.0515 159.798 18.7354C159.499 18.1341 158.945 17.8347 158.14 17.8347C157.208 17.8347 156.563 18.2218 156.208 18.996C156.027 19.4076 155.936 19.9005 155.936 20.4773V28.1676H152.535V20.4773C152.535 19.7108 152.456 19.1534 152.299 18.8063C152.014 18.1818 151.456 17.8695 150.628 17.8695C149.664 17.8695 149.016 18.1818 148.685 18.8063C148.503 19.1612 148.412 19.6902 148.412 20.3934V28.1676H144.988V15.2747H148.27V17.1586C148.688 16.4876 149.085 16.0102 149.455 15.7263C150.11 15.2192 150.959 14.9676 152.002 14.9676C152.989 14.9676 153.788 15.1844 154.396 15.6192C154.886 16.0231 155.258 16.5392 155.509 17.1715C155.952 16.4128 156.501 15.8566 157.156 15.5005C157.852 15.1457 158.625 14.9676 159.478 14.9676C160.048 14.9676 160.608 15.0773 161.161 15.2992Z" fill="white"/>
</g>
</svg>
