<?xml version="1.0" encoding="utf-8"?>
<!-- Generator: Adobe Illustrator 22.1.0, SVG Export Plug-In . SVG Version: 6.00 Build 0)  -->
<svg version="1.1" id="Layer_1" xmlns="http://www.w3.org/2000/svg" xmlns:xlink="http://www.w3.org/1999/xlink" x="0px" y="0px"
	 viewBox="0 0 1000 1000" style="enable-background:new 0 0 1000 1000;" xml:space="preserve">
<style type="text/css">
	.st0{fill:#00B7F8;}
	.st1{fill:#FFFFFF;filter:url(#Adobe_OpacityMaskFilter);}
	.st2{mask:url(#mask0_2_);}
	.st3{fill:#8261FB;}
</style>
<path class="st0" d="M560.3,354c73.6,24.8,124.8,52.2,170,84.6c60.3-70.8,64.9-162.4,58.8-225C736.9,276.2,660.4,323.2,560.3,354z"
	/>
<defs>
	<filter id="Adobe_OpacityMaskFilter" filterUnits="userSpaceOnUse" x="179.9" y="0" width="640.2" height="1000">
		<feColorMatrix  type="matrix" values="1 0 0 0 0  0 1 0 0 0  0 0 1 0 0  0 0 0 1 0"/>
	</filter>
</defs>
<mask maskUnits="userSpaceOnUse" x="179.9" y="0" width="640.2" height="1000" id="mask0_2_">
	<path class="st1" d="M179.9,0h640.2v1000H179.9V0z"/>
</mask>
<g class="st2">
	<path class="st3" d="M195.2,1000c52.5-72.3,121.2-89.1,241.8-118.7c46.6-11.4,99.4-24.4,163.3-43.1
		c148.8-43.7,186.9-127.7,196.3-173.9c12.5-60.8-9.3-124.7-55.5-162.7C640.6,418.7,541.8,386,394.6,354.8l-31.5-6.7l32-4
		c179.3-22.2,304.5-80.2,372.2-172.6C818,102.1,821.3,31.3,819.8,0c-39.6,62-118.5,80.8-243.2,110.5
		c-51.7,12.4-110.4,26.3-177.6,46.1c-148.8,43.7-186.9,127.7-196.3,173.9c-12.4,60.8,9.3,124.7,55.5,162.7
		C358.6,576,457.5,608.7,604.7,640l31.5,6.7l-32,3.9c-91.6,11.3-179.3,30.8-247,54.9c-85.6,30.4-139.9,67.1-161.4,109.3
		C165.2,874.8,186.6,968.6,195.2,1000z"/>
</g>
</svg>
