<?xml version="1.0" encoding="utf-8"?>
<!-- Generator: Adobe Illustrator 22.1.0, SVG Export Plug-In . SVG Version: 6.00 Build 0)  -->
<svg version="1.1" id="Layer_1" xmlns="http://www.w3.org/2000/svg" xmlns:xlink="http://www.w3.org/1999/xlink" x="0px" y="0px"
	 viewBox="0 0 164 38" style="enable-background:new 0 0 164 38;" xml:space="preserve">
<style type="text/css">
	.st0{fill:#00B7F8;}
	.st1{fill:#FFFFFF;filter:url(#Adobe_OpacityMaskFilter);}
	.st2{mask:url(#mask0_1_);}
	.st3{fill:#8261FB;}
	.st4{fill:#FFFFFF;filter:url(#Adobe_OpacityMaskFilter_1_);}
	.st5{mask:url(#mask1_1_);}
</style>
<path class="st0" d="M14.2,13.5c2.8,0.9,4.7,2,6.4,3.2c2.3-2.7,2.4-6.1,2.2-8.4C20.9,10.6,18,12.4,14.2,13.5z"/>
<defs>
	<filter id="Adobe_OpacityMaskFilter" filterUnits="userSpaceOnUse" x="0" y="0.3" width="24" height="37.4">
		<feColorMatrix  type="matrix" values="1 0 0 0 0  0 1 0 0 0  0 0 1 0 0  0 0 0 1 0"/>
	</filter>
</defs>
<mask maskUnits="userSpaceOnUse" x="0" y="0.3" width="24" height="37.4" id="mask0_1_">
	<path class="st1" d="M0,0.3h24v37.4H0V0.3z"/>
</mask>
<g class="st2">
	<path class="st3" d="M0.6,37.7c2-2.7,4.5-3.3,9.1-4.4c1.7-0.4,3.7-0.9,6.1-1.6c5.6-1.6,7-4.8,7.3-6.5c0.5-2.3-0.3-4.7-2.1-6.1
		c-3.8-3.1-7.5-4.3-13-5.5l-1.2-0.2l1.2-0.1c6.7-0.8,11.4-3,13.9-6.5c1.9-2.6,2-5.2,2-6.4c-1.5,2.3-4.4,3-9.1,4.1
		c-1.9,0.5-4.1,1-6.6,1.7c-5.6,1.6-7,4.8-7.3,6.5c-0.5,2.3,0.3,4.7,2.1,6.1c3.8,3.1,7.5,4.3,13,5.5l1.2,0.3l-1.2,0.1
		c-3.4,0.4-6.7,1.2-9.2,2.1c-3.2,1.1-5.2,2.5-6,4.1C-0.5,33,0.2,36.5,0.6,37.7z"/>
</g>
<path class="st3" d="M41.4,22.8c0.1,0.8,0.3,1.4,0.7,1.8c0.6,0.7,1.6,1.1,3.1,1.1c0.9,0,1.6-0.1,2.1-0.3c1-0.4,1.6-1,1.6-2
	c0-0.6-0.3-1-0.8-1.3c-0.5-0.3-1.3-0.6-2.4-0.8l-1.9-0.4c-1.9-0.4-3.1-0.9-3.8-1.3c-1.2-0.8-1.8-2.1-1.8-3.8c0-1.6,0.6-2.9,1.7-3.9
	c1.2-1,2.8-1.6,5.1-1.6c1.9,0,3.5,0.5,4.8,1.5c1.3,1,2,2.4,2.1,4.2h-3.5c-0.1-1.1-0.5-1.8-1.4-2.2c-0.6-0.3-1.3-0.4-2.2-0.4
	c-1,0-1.7,0.2-2.3,0.6c-0.6,0.4-0.9,0.9-0.9,1.6c0,0.6,0.3,1.1,0.9,1.4c0.4,0.2,1.1,0.4,2.3,0.7l3.1,0.7c1.3,0.3,2.3,0.7,3,1.3
	c1,0.8,1.6,2,1.6,3.6c0,1.6-0.6,2.9-1.8,4c-1.2,1.1-3,1.6-5.2,1.6c-2.3,0-4.1-0.5-5.4-1.6c-1.3-1-2-2.5-2-4.3H41.4z"/>
<path class="st3" d="M58.1,15.3V23c0,0.7,0.1,1.3,0.3,1.7c0.3,0.7,0.9,1,1.8,1c1.1,0,1.9-0.5,2.4-1.4c0.2-0.5,0.3-1.2,0.3-2v-7h3.4
	v12.9H63v-1.8c0,0-0.1,0.2-0.2,0.4c-0.1,0.2-0.3,0.4-0.4,0.5c-0.5,0.5-1,0.8-1.5,1c-0.5,0.2-1.1,0.3-1.7,0.3c-1.9,0-3.2-0.7-3.9-2.1
	c-0.4-0.8-0.6-1.9-0.6-3.4v-7.8H58.1z"/>
<path class="st3" d="M77.8,19.1c-0.5-0.8-1.2-1.1-2.2-1.1c-1.2,0-2.1,0.6-2.5,1.7c-0.2,0.6-0.4,1.4-0.4,2.3c0,1.5,0.4,2.6,1.2,3.2
	c0.5,0.4,1,0.5,1.7,0.5c0.9,0,1.7-0.4,2.2-1.1c0.5-0.7,0.7-1.7,0.7-2.9C78.5,20.7,78.3,19.8,77.8,19.1z M80.4,16.6
	c1.1,1.1,1.6,2.7,1.6,4.9c0,2.3-0.5,4-1.5,5.2c-1,1.2-2.4,1.8-4,1.8c-1,0-1.9-0.3-2.6-0.8c-0.4-0.3-0.7-0.7-1.1-1.2v6.7h-3.3v-18
	h3.2v1.9c0.4-0.6,0.8-1,1.2-1.3c0.8-0.6,1.7-0.9,2.7-0.9C78,15,79.3,15.5,80.4,16.6z"/>
<path class="st3" d="M87.7,18.4c-0.5,0.5-0.8,1.2-0.9,2h5.8c-0.1-0.9-0.4-1.6-0.9-2c-0.5-0.5-1.2-0.7-2-0.7
	C88.9,17.7,88.2,17.9,87.7,18.4z M92.8,15.5c0.9,0.4,1.6,1,2.2,1.9c0.5,0.8,0.9,1.7,1,2.7c0.1,0.6,0.1,1.4,0.1,2.6h-9.4
	c0.1,1.3,0.5,2.2,1.3,2.7c0.5,0.3,1.1,0.5,1.9,0.5c0.8,0,1.4-0.2,1.9-0.6c0.3-0.2,0.5-0.5,0.7-0.9H96c-0.1,0.8-0.5,1.5-1.3,2.3
	c-1.2,1.3-2.8,1.9-4.9,1.9c-1.7,0-3.2-0.5-4.5-1.6c-1.3-1.1-2-2.8-2-5.2c0-2.2,0.6-4,1.8-5.1c1.2-1.2,2.7-1.8,4.6-1.8
	C90.8,14.9,91.9,15.1,92.8,15.5z"/>
<path class="st3" d="M105,15c0,0,0.1,0,0.3,0v3.5c-0.2,0-0.4,0-0.6,0c-0.2,0-0.3,0-0.4,0c-1.4,0-2.3,0.4-2.7,1.3
	c-0.3,0.5-0.4,1.3-0.4,2.3v6.2h-3.4V15.3h3.2v2.3c0.5-0.9,1-1.5,1.4-1.8c0.6-0.5,1.5-0.8,2.5-0.8C104.9,14.9,105,14.9,105,15z"/>
<path class="st3" d="M107.6,10.7H120v3.1h-8.8v4h7.7v3h-7.7v7.3h-3.6V10.7z"/>
<path class="st3" d="M129.3,21.9c-0.2,0.1-0.4,0.2-0.7,0.3c-0.2,0.1-0.5,0.2-0.9,0.2l-0.8,0.1c-0.7,0.1-1.2,0.3-1.6,0.5
	c-0.5,0.3-0.8,0.8-0.8,1.4c0,0.6,0.2,1,0.5,1.2c0.3,0.3,0.7,0.4,1.2,0.4c0.7,0,1.4-0.2,2-0.6c0.6-0.4,0.9-1.2,1-2.3V21.9z
	 M127.2,20.3c0.6-0.1,1.1-0.2,1.4-0.3c0.5-0.2,0.7-0.5,0.7-1c0-0.5-0.2-0.9-0.6-1.1c-0.4-0.2-0.9-0.3-1.6-0.3
	c-0.8,0-1.4,0.2-1.7,0.6c-0.2,0.3-0.4,0.7-0.5,1.2h-3.3c0.1-1.1,0.4-2.1,1-2.8c0.9-1.1,2.4-1.7,4.6-1.7c1.4,0,2.7,0.3,3.8,0.8
	c1.1,0.6,1.7,1.6,1.7,3.2v5.9c0,0.4,0,0.9,0,1.5c0,0.4,0.1,0.7,0.2,0.9c0.1,0.2,0.3,0.3,0.5,0.4v0.5h-3.7c-0.1-0.3-0.2-0.5-0.2-0.7
	c0-0.2-0.1-0.5-0.1-0.8c-0.5,0.5-1,0.9-1.6,1.3c-0.7,0.4-1.6,0.6-2.5,0.6c-1.2,0-2.1-0.3-2.9-1c-0.8-0.7-1.1-1.6-1.1-2.8
	c0-1.6,0.6-2.7,1.8-3.4c0.7-0.4,1.7-0.7,3-0.8L127.2,20.3z"/>
<path class="st3" d="M142.8,15c0,0,0.1,0,0.3,0v3.5c-0.2,0-0.4,0-0.6,0c-0.2,0-0.3,0-0.4,0c-1.4,0-2.3,0.4-2.7,1.3
	c-0.3,0.5-0.4,1.3-0.4,2.3v6.2h-3.4V15.3h3.2v2.3c0.5-0.9,1-1.5,1.4-1.8c0.6-0.5,1.5-0.8,2.5-0.8C142.7,14.9,142.7,14.9,142.8,15z"
	/>
<defs>
	<filter id="Adobe_OpacityMaskFilter_1_" filterUnits="userSpaceOnUse" x="145" y="15" width="18.5" height="13.2">
		<feColorMatrix  type="matrix" values="1 0 0 0 0  0 1 0 0 0  0 0 1 0 0  0 0 0 1 0"/>
	</filter>
</defs>
<mask maskUnits="userSpaceOnUse" x="145" y="15" width="18.5" height="13.2" id="mask1_1_">
	<path class="st4" d="M145,15h18.5v13.2H145V15z"/>
</mask>
<g class="st5">
	<path class="st3" d="M161.2,15.3c0.6,0.2,1.1,0.6,1.5,1.2c0.4,0.5,0.6,1,0.7,1.7c0.1,0.4,0.1,1.1,0.1,1.9l0,8.1H160v-8.2
		c0-0.5-0.1-0.9-0.2-1.2c-0.3-0.6-0.9-0.9-1.7-0.9c-0.9,0-1.6,0.4-1.9,1.2c-0.2,0.4-0.3,0.9-0.3,1.5v7.7h-3.4v-7.7
		c0-0.8-0.1-1.3-0.2-1.7c-0.3-0.6-0.8-0.9-1.7-0.9c-1,0-1.6,0.3-1.9,0.9c-0.2,0.4-0.3,0.9-0.3,1.6v7.8H145V15.3h3.3v1.9
		c0.4-0.7,0.8-1.1,1.2-1.4c0.7-0.5,1.5-0.8,2.5-0.8c1,0,1.8,0.2,2.4,0.7c0.5,0.4,0.9,0.9,1.1,1.6c0.4-0.8,1-1.3,1.6-1.7
		c0.7-0.4,1.5-0.5,2.3-0.5C160,15,160.6,15.1,161.2,15.3z"/>
</g>
</svg>
