<?xml version="1.0" encoding="utf-8"?>
<!-- Generator: Adobe Illustrator 22.1.0, SVG Export Plug-In . SVG Version: 6.00 Build 0)  -->
<svg version="1.1" id="Layer_1" xmlns="http://www.w3.org/2000/svg" xmlns:xlink="http://www.w3.org/1999/xlink" x="0px" y="0px"
	 viewBox="0 0 22 24" style="enable-background:new 0 0 22 24;" xml:space="preserve">
<style type="text/css">
	.st0{fill:#FF4F4F;}
</style>
<g id="XMLID_1_">
	<path d="M17.5,8.7c0-3.6-2.9-6.5-6.5-6.5S4.4,5.1,4.4,8.7v8.7h2.2h8.7h2.2V8.7z M10.9,21.8c1.2,0,2.2-1,2.2-2.2H8.7
		C8.7,20.8,9.7,21.8,10.9,21.8z M15.3,19.6c0,2.4-2,4.4-4.4,4.4c-2.4,0-4.4-2-4.4-4.4H2.2H1.1c-0.6,0-1.1-0.5-1.1-1.1
		c0-0.6,0.5-1.1,1.1-1.1h1.1V8.7C2.2,3.9,6.1,0,10.9,0s8.7,3.9,8.7,8.7v8.7h1.1c0.6,0,1.1,0.5,1.1,1.1c0,0.6-0.5,1.1-1.1,1.1h-1.1
		H15.3z"/>
</g>
<circle class="st0" cx="16.4" cy="5" r="5"/>
</svg>
