<svg width="24" height="24" viewBox="0 0 24 24" fill="none" xmlns="http://www.w3.org/2000/svg">
<path fill-rule="evenodd" clip-rule="evenodd" d="M18.6814 17.3915L23.5779 22.2799C23.9697 22.6737 23.9707 23.3112 23.5779 23.7039C23.3805 23.9013 23.1227 24 22.8649 24C22.6071 24 22.3492 23.9013 22.1529 23.706L17.2393 18.8004C15.4245 20.2667 13.1183 21.15 10.6086 21.15C4.77853 21.15 0.0341187 16.4065 0.0341187 10.5755C0.0341187 4.74441 4.77956 0 10.6106 0C16.4417 0 21.1851 4.74342 21.1851 10.5745C21.1851 13.1717 20.2404 15.5495 18.6814 17.3915ZM2.04834 10.5755C2.04834 15.2957 5.88838 19.1357 10.6086 19.1357C15.3288 19.1357 19.1689 15.2957 19.1689 10.5755C19.1689 5.85525 15.3289 2.0152 10.6086 2.0152C5.88834 2.0152 2.04834 5.85525 2.04834 10.5755Z" fill="black"/>
</svg>
