<svg width="13" height="13" viewBox="0 0 13 13" fill="none" xmlns="http://www.w3.org/2000/svg">
<path fill-rule="evenodd" clip-rule="evenodd" d="M6.33336 11.6795C3.39705 11.6795 1.01669 9.34333 1.01669 6.46154C1.01669 3.57975 3.39705 1.24359 6.33336 1.24359C9.26967 1.24359 11.65 3.57975 11.65 6.46154C11.65 9.34333 9.26967 11.6795 6.33336 11.6795ZM9.90978 8.89247C10.3975 8.20259 10.6834 7.36483 10.6834 6.46154C10.6834 4.10371 8.7358 2.19231 6.33336 2.19231C3.93092 2.19231 1.98336 4.10371 1.98336 6.46154C1.98336 7.36482 2.26919 8.20259 2.75693 8.89246C3.3009 8.18729 4.57915 7.88462 6.33335 7.88462C8.08756 7.88462 9.36581 8.18729 9.90978 8.89247ZM9.21628 9.65861C9.07482 9.15939 8.05856 8.83333 6.33335 8.83333C4.60816 8.83333 3.5919 9.15939 3.45043 9.6586C4.21795 10.3258 5.22746 10.7308 6.33336 10.7308C7.43925 10.7308 8.44876 10.3258 9.21628 9.65861ZM6.33336 3.61539C5.16326 3.61539 4.40003 4.44825 4.40003 5.51282C4.40003 7.13863 5.25111 7.88462 6.33336 7.88462C7.40543 7.88462 8.26669 7.16341 8.26669 5.60769C8.26669 4.5269 7.50022 3.61539 6.33336 3.61539ZM5.36669 5.51282C5.36669 6.58926 5.76216 6.9359 6.33336 6.9359C6.90258 6.9359 7.30003 6.60309 7.30003 5.60769C7.30003 5.01494 6.92093 4.5641 6.33336 4.5641C5.72133 4.5641 5.36669 4.9511 5.36669 5.51282Z" fill="white"/>
</svg>
