<svg width="8" height="9" viewBox="0 0 8 9" fill="none" xmlns="http://www.w3.org/2000/svg">
<path fill-rule="evenodd" clip-rule="evenodd" d="M3.60985 1.85506V1.43748H3.17424V0.645813H4.91667V1.43748H4.48106V1.85506C5.23705 1.931 5.92826 2.20227 6.49221 2.6121L7.22161 1.94639L7.839 2.50495L7.10832 3.17183C7.64499 3.78133 7.96591 4.55452 7.96591 5.39581C7.96591 7.36333 6.21066 8.95831 4.04546 8.95831C1.88025 8.95831 0.125 7.36333 0.125 5.39581C0.125 3.56209 1.64964 2.05196 3.60985 1.85506ZM4.04545 8.16665C5.72951 8.16665 7.0947 6.9261 7.0947 5.39581C7.0947 3.86552 5.72951 2.62498 4.04545 2.62498C2.3614 2.62498 0.996212 3.86552 0.996212 5.39581C0.996212 6.9261 2.3614 8.16665 4.04545 8.16665ZM4.48106 5.79165V3.41665H3.60985V5.79165H4.48106Z" fill="black"/>
</svg>
